<svg xmlns="http://www.w3.org/2000/svg" viewBox="0 0 64 64" width="64" height="64" fill="none">
  <rect width="64" height="64" rx="10" fill="#0A0F1A" stroke="#D97706" stroke-width="2"/>
  <!-- Top-left orientation index dot -->
  <circle cx="14" cy="14" r="3.5" fill="#FFFFFF"/>
  <!-- Input Pins / Traces -->
  <rect x="0" y="24" width="15" height="3.5" fill="#FFFFFF"/>
  <rect x="0" y="36" width="15" height="3.5" fill="#FFFFFF"/>
  <!-- Output Pin / Trace -->
  <rect x="49" y="30" width="15" height="3.5" fill="#FFFFFF"/>
  <!-- NAND Gate Body -->
  <path d="M15 18 L32 18 C41 18 47 24 47 31.5 C47 39 41 45 32 45 L15 45 Z" fill="#FFFFFF"/>
  <!-- Inversion Bubble -->
  <circle cx="49" cy="31.5" r="3.8" fill="#FFFFFF"/>
  <!-- Vias (Circuit Rings) -->
  <circle cx="45" cy="10" r="2.5" fill="none" stroke="#FFFFFF" stroke-width="1.8"/>
  <circle cx="53" cy="10" r="2.5" fill="none" stroke="#FFFFFF" stroke-width="1.8"/>
  <circle cx="49" cy="17" r="2.5" fill="none" stroke="#FFFFFF" stroke-width="1.8"/>
  <circle cx="49" cy="24" r="2.5" fill="none" stroke="#FFFFFF" stroke-width="1.8"/>
  <circle cx="15" cy="54" r="2.5" fill="none" stroke="#FFFFFF" stroke-width="1.8"/>
  <circle cx="22" cy="54" r="2.5" fill="none" stroke="#FFFFFF" stroke-width="1.8"/>
  <circle cx="29" cy="54" r="2.5" fill="none" stroke="#FFFFFF" stroke-width="1.8"/>
  <circle cx="36" cy="54" r="2.5" fill="none" stroke="#FFFFFF" stroke-width="1.8"/>
  <circle cx="43" cy="54" r="2.5" fill="none" stroke="#FFFFFF" stroke-width="1.8"/>
  <circle cx="50" cy="54" r="2.5" fill="none" stroke="#FFFFFF" stroke-width="1.8"/>
  <circle cx="50" cy="45" r="2.5" fill="none" stroke="#FFFFFF" stroke-width="1.8"/>
</svg>
